<svg height="50" viewBox="0 0 132 50" width="132" xmlns="http://www.w3.org/2000/svg" xmlns:xlink="http://www.w3.org/1999/xlink"><filter id="a"><feColorMatrix in="SourceGraphic" type="matrix" values="0 0 0 0 1.000000 0 0 0 0 1.000000 0 0 0 0 1.000000 0 0 0 1.000000 0"/></filter><g fill="none" fill-rule="evenodd" filter="url(#a)" transform="translate(-135 -80)"><g fill="#161e25" transform="translate(135 80)"><path d="m37.7777963 41.6132058h-3.5048607v8.1048275h1.9905654v-6.5178088h1.1554803c.9620083 0 1.5156673.7609896 1.5156673 1.6766196 0 1.1693389-1.1908814 1.6580956-2.0509397 1.6580956.3372724.4887568 1.0425531.6092308 1.5870188.6092308 1.3333097 0 2.4669729-1.0516092 2.4669729-2.5117048 0-1.1044366-.6373596-3.0192599-3.1599043-3.0192599"/><path d="m45.3474886 46.6742121 1.1165114-3.3380084 1.0457089 3.3380084zm-.1733015-5.0610063-2.7964241 8.1048275h1.917842l.4856008-1.457077h3.2604823l.4733888 1.457077h2.0911435l-2.6664824-8.1048275z"/><path d="m107.537601 46.6742121 1.11363-3.3380084 1.04859 3.3380084zm-.173302-5.0610063-2.796424 8.1048275h1.917979l.482583-1.457077h3.263501l.473388 1.457077h2.091144l-2.66662-8.1048275z"/><path d="m59.3544449 46.9741622-3.5930894-5.3609564h-2.4082453v8.1048275h1.8869688v-5.3267901l3.6161414 5.3267901h2.3975426v-8.1048275h-1.8993181z"/><path d="m64.452499 43.2559335h2.418948v6.4620998h1.9905655v-6.4620998h2.4207318v-1.6427277h-6.8302453z"/><path d="m79.5482495 44.8551642h-3.412104v-3.2419584h-1.9904282v8.1048275h1.9904282v-3.2758503h3.412104v3.2758503h1.992212v-8.1048275h-1.992212z"/><path d="m87.5106486 46.442183h3.1028233v-1.5870188h-3.1028233v-1.6549397h3.8900208v-1.5870187h-5.883605v8.1048275h5.8712558l.1035966-1.5868815h-3.9812682z"/><path d="m101.489888 48.3383451c-.624736-.8322037-1.147659-1.506474-1.9920751-1.8436091 1.0300661-.1733015 2.1158421-.9466404 2.1158421-2.2676009 0-1.21558-1.048728-2.6139293-3.3904242-2.6139293h-3.4491518v8.1048275h1.9922121v-6.5178088h1.1321538c1.1940374 0 1.6550769.7393098 1.6550769 1.4322412 0 1.1011434-1.3643201 1.4569397-2.1283285 1.5405031.8320666.5661455 1.3084741 1.7261539 1.9580458 2.7005114.3929813.5909813.8322039.9373098 1.7603199.9373098.403684 0 1.214071-.0804075 1.617892-.5102994-.380632-.0587276-.751933-.2660582-1.271563-.9621455"/><path d="m15.4214969 9.79750104c3.2868274.75783366 9.6067734 1.98891896 14.3226861 2.37256966 3.712054.303106 5.865081-.0216798 5.8480665.0061746-.6048399.9713389-1.0749356 2.2488025-2.1360125 3.9750936 0 0-1.2620956 2.4282786-2.8893181 3.7275592-.5102994.4115052-1.0300665.6589023-1.2249106.7578337-.3171019.1577963.1901788.2226986.1901788.2226986s5.7816549.590844 9.0931809-3.4955302c1.2806195-1.5807069 1.7431684-2.4654636 2.5305031-3.5357339 4.0089854-5.45055715 6.6754678-7.29732223 11.8167443-7.88830351.4362037-.04939709 1.9148233-.23202911 2.2597796-.25055302 2.6773223-.14544698.6527277-.70843659-1.1383285-1.09826195-.7270977-.15765905-6.6509064-1.33948441-13.4084282 1.07658212-9.0359626 3.22645322-21.0013098 1.00221206-25.6847027.17645738-12.62274017-2.21806653-14.82063622 3.86051975-14.95688986 6.64143868-.13913514 2.8644823 2.9651975 3.4616382 3.10899792 1.3271351.39901871-5.85588771 8.25946774-4.94327648 12.26845324-4.01516006"/><path d="m79.3317256 29.6943742c.194844-.0278544.2071933-.1733014.0123492-.2043118-1.7184698-.2629023-6.9061247-4.3833056-10.6196881-8.3213514-7.0436133-7.4612931-16.2250229.6064865-17.9233223 1.7046112-1.6147359 1.0424158-5.9022661 4.1142287-9.6623451 5.3082662-2.3525363.7454844-5.2633971 1.255921-7.9331725 1.2622328 0 0-2.4159293-.0743701-4.8008483-.5199044-9.5030395-1.7568898-8.2099334-3.1242287-9.2865155-2.79958-1.6332599.4887568-6.7529938 4.8011227-7.8371227 5.6024532-1.64259045 1.218736-2.41757589 1.626948-3.80796674 1.8032682-1.38449065.1733015-2.09279003-.0927567-2.4098919.1702828-.47640748.3990187-.54281912 1.664133-.32643243 2.3200166.33727235 1.020736 1.45858628 2.6139293 3.70286071 2.0756382 2.69749276-.646553 6.96018706-4.9619376 10.57029106-5.5000914 1.3331726-.198 4.7237339-.5908441 10.8950769-.8629397 0 .5381538-.5629896 1.3485405-1.2126985 2.1930935-1.1074553 1.4507651-3.3779377 2.2025613-3.3779377 2.2025613-.4300291.1948441-.7858253.6557464-.9064365.9588524-.7640084 1.8964366-2.8831435 6.8397131-3.084025 7.3810229-.2165239.5784948-.6867567 2.1995426 1.0687609 4.5317713.2196799.3002245.4005281.4982245.8971061.6650769.6572557.2228358 3.8930395.198 4.403476-.1391351.5072807-.3309605.3634803-1.7880374.1004408-2.2242412-.541447-.8877754-1.7059834-1.1353097-1.7059834-1.1353097-1.8174012-6.0660998 6.7251393-8.5841165 6.7251393-8.5841165 17.26442-5.5249272 17.9171476-12.0087068 18.4584574-12.9151434l.0185239-.0091934c.900262-.2660582 5.9965322-1.8066985 10.2763784.1392724 3.3874054 1.5435218 11.0033389 5.8495759 17.765526 4.8968981"/><path d="m131.756033 29.1003742c-.179476-.6929314-.331097-1.0455717-.955833-1.5746694-1.184844-.9898628-5.44452-3.7212474-6.626208-3.7554137-.457884-.0123493-9.490553-1.166183-13.020113-1.2806196.538154-.3928441 1.357872-2.1777256 1.988919-4.5474137.377476-1.4322412.816836-1.8776383 1.766495-1.7879002.046379.0061746.105106.0155052.173027.0248357.560108.4485531.956108 1.2619585 2.218067 1.540366.85059.1918253 2.388212-.2103493 3.733871-.1112807.457746.052553.726823.0896008 1.24659.2537089 0 0 .006175-.0031559.01235-.0031559 1.172357.303106 2.218066 1.1878628 2.85227 1.147659 1.067114 0 2.084969-1.345659 2.146715-1.4847941 0 0-1.695281-.1020874-2.168532-.5382911-.88462-.8166985-.068058-1.1137671-1.67662-1.8065613-1.605542-.6991061-4.900054.1175925-6.51479-.8290478-.655609-.5816508-1.299143-1.2527651-2.211755-1.4507651-1.373513-.2907568-5.268062-.1145738-5.268062-.1145738-.204175.0093305-.204175.0867193-.163971.3991559.352641 3.2758503-2.010736 5.2680624-3.313172 6.1991975-1.840591 1.3178046-2.836628 1.9303285-2.836628 1.9303285-.255081.1298046-.355659.2535717-.255081.4577464.060237.1206112.273742.1329605 1.526644.4237172 2.032279.473526 8.246982 2.6697755 8.90904 3.1245031 1.172357.8166986 1.314511 3.0439584 1.314511 3.0439584s-.055572.2318919.27237.2041747c1.030067-.0865821 7.881992-.396 9.159593-.1671268 1.515804.2690769 3.671987 2.0324158 3.51721 2.5922494 0 0-1.160009 4.0091227 3.152357 3.7710562.81958-.0465156 1.172358-1.2220291 1.200212-1.797368 0 0 .12363-2.6758129-.179476-3.8636757"/><path d="m125.637243 11.3997505c0-.0093305-.003018-.0155052-.006174-.0216798.003156.0061746.003156.0155052.006174.0246985z"/><path d="m110.726869 33.0474761c.680582-.3928441.807368-2.3849189.773339-3.387131-.034029-.5476216-.216524-1.744815-.606349-2.1995426-.711456-.8320665-10.853227-2.3108233-20.6515513-1.6240665-3.5962453.250553-4.3602536-2.0849688-4.3602536-2.0849688-.8243826-1.5064741 3.1321871-6.7066154 3.1321871-6.7066154-.1177298-.2534345-.3682828-.2597464-.7192765-.1051061-3.1074886 1.3735136-6.3277672 5.4103535-7.1768483 8.4234387-.9449937 3.3502204 3.763235 4.1514137 5.209472 4.0368399 6.3600124-.5072806 19.9849646-.411368 20.3469356-.3741829.303243.0308732.590844.9403285.284582 1.1816881-.389825.3122994-1.172358.5289605-2.357064.7887069 0 0-3.031747.9126112-1.042553 4.3185405.346328.5938628 1.02691.4732516 1.664133.32163 0 0 3.161551-1.2434346 5.503247-2.5892308"/><path d="m115.843447 7.22377547c1.153834-1.1384657 1.769376-1.52513514 1.317667-2.99758004-.306124-1.0055052.02168-1.40136799.541447-1.44788358.501244-.04939709 1.141348.94362162 2.64494 1.63339709 1.53131.70829938 1.688969.82904782 3.4862 1.79105613 2.001405 1.07040749 2.264445 1.56849481 2.255251 2.84595842-.012349 1.58701871 2.620104 2.70984201 2.691181 3.82360911.052553.7825323-1.126116.5876882-1.126116.5876882-.163834 1.5713763.949796 1.2497464 1.831397 1.8869688.860058-.7084366 1.651921-1.3951933 1.667362-2.2272599.015432-1.0178544-2.431371-4.27216213-2.468556-5.28974217-.049534-1.54969647-1.125979-2.46560084-1.614736-2.89549273-1.147659-1.00536798-3.449151-2.19638669-3.449151-2.19638669-.244379-1.26511435-.643535-1.97039501-1.330291-2.1498711-1.008387-.26605822-2.239472.85690228-2.239472.85690228-1.534466-1.3054553-2.691456-1.44459043-3.662657-1.22504781-.903281.20719334-1.911805.94979625-1.859252 2.95422037.04336 1.75098961 1.314786 4.04946362 1.314786 4.04946362"/><path d="m80.0864033 9.06422869c.6203451.28773805 1.5066113.64037838 2.5801747.97120171 2.5364033.7796507 5.1906736 1.0457089 6.4929729.3466029 5.9378046-3.17390024 7.8047402-4.89374224 11.0528731-4.83199588.173302.01234927.646416.00617464.832067.02469855 2.046411.2320291 3.486199.66205821 5.995023 3.01610395 0 0 .287738.27538877.368008.25055301.120748-.03704782-.318474-3.72138461 2.422241-4.42968399 2.496474-.6464158 3.325522-1.08577547 2.075775-1.32397921-.680582-.12994179-1.93664-.15779626-4.742395.34330977-1.679638.30022453-3.084024.69293139-6.333667.09289397-1.9318377-.35264033-3.1660789-.68675675-4.4746901-.594-2.1700416.09906861-4.1514138 1.02718503-6.5888857 2.10349273-.6095052.25055301-1.2637422.51976715-1.9830187.79803742-6.6150936 2.56755093-8.4945156 2.01389189-8.738894 2.54902702-.0772515.1639709.2907568.396 1.0424158.68373805"/></g></g></svg>